<?xml version="1.0" encoding="UTF-8"?>
<svg version="1.1" xmlns="http://www.w3.org/2000/svg" width="128" height="128">
<path d="M0 0 C0.87696533 0.00757324 1.75393066 0.01514648 2.6574707 0.02294922 C9.43084031 0.19487171 15.10377379 1.177276 21.125 4.4375 C21.89714844 4.85 22.66929688 5.2625 23.46484375 5.6875 C34.31500158 12.21614197 41.76511301 22.12215661 44.8671875 34.3671875 C45.39893039 37.05503853 45.79762565 39.71811038 46.125 42.4375 C46.29 43.51 46.455 44.5825 46.625 45.6875 C45.28796114 53.04121374 37.55972676 57.66080433 32.07421875 62.03125 C28.11620621 65.26056884 24.37825869 68.70425575 20.6328125 72.17578125 C19.39144531 73.29533203 19.39144531 73.29533203 18.125 74.4375 C17.11953125 75.54544922 17.11953125 75.54544922 16.09375 76.67578125 C8.34546303 81.27377786 -4.2520251 79.89778485 -12.875 78.4375 C-17.78893751 76.45033775 -20.64105971 72.48987158 -23.875 68.4375 C-25.67038001 66.89227454 -27.50491945 65.39142911 -29.375 63.9375 C-31.20833333 62.4375 -33.04166667 60.9375 -34.875 59.4375 C-35.38724121 59.02999512 -35.89948242 58.62249023 -36.42724609 58.20263672 C-45.5380693 50.90555521 -45.5380693 50.90555521 -46.75 45.625 C-46.44140625 43.6953125 -46.44140625 43.6953125 -45.875 41.4375 C-45.69839844 40.42429688 -45.52179687 39.41109375 -45.33984375 38.3671875 C-42.87714568 25.65553637 -36.89541481 15.430777 -26.38671875 7.578125 C-17.96282174 2.2853499 -9.9328727 -0.12074693 0 0 Z M-32.875 46.4375 C-33.21465994 49.5123887 -33.21465994 49.5123887 -31.07421875 51.3828125 C-29.83091797 52.46175781 -29.83091797 52.46175781 -28.5625 53.5625 C-27.21091797 54.74005859 -27.21091797 54.74005859 -25.83203125 55.94140625 C-21.22512413 59.83019575 -16.57324071 63.65925699 -11.875 67.4375 C-10.51476773 63.35680318 -11.92829004 60.75598304 -13.4375 56.9375 C-13.67791016 56.26074219 -13.91832031 55.58398438 -14.16601562 54.88671875 C-15.53065757 51.40121011 -16.63673553 49.59946811 -19.75390625 47.48046875 C-22.82757683 46.45334729 -25.03238307 46.11955607 -28.25 46.25 C-29.12398437 46.27707031 -29.99796875 46.30414063 -30.8984375 46.33203125 C-31.55070312 46.36683594 -32.20296875 46.40164062 -32.875 46.4375 Z M-7.875 47.4375 C-7.23483027 52.57506468 -5.67799667 57.02540181 -3.8125 61.8125 C-3.53083984 62.54855469 -3.24917969 63.28460938 -2.95898438 64.04296875 C-2.26933382 65.8430736 -1.57286068 67.6405621 -0.875 69.4375 C-0.215 69.4375 0.445 69.4375 1.125 69.4375 C2.29961555 66.33628289 3.46330456 63.23107759 4.625 60.125 C4.95886719 59.24392578 5.29273438 58.36285156 5.63671875 57.45507812 C5.95253906 56.60751953 6.26835938 55.75996094 6.59375 54.88671875 C6.88701172 54.10643311 7.18027344 53.32614746 7.48242188 52.5222168 C8.27227883 50.32326681 8.27227883 50.32326681 8.125 47.4375 C5.17673237 46.45474412 3.19847496 46.30335275 0.125 46.3125 C-0.74125 46.30992188 -1.6075 46.30734375 -2.5 46.3046875 C-5.02511695 46.34155795 -5.02511695 46.34155795 -7.875 47.4375 Z M17.125 49.4375 C15.68391592 52.0227175 14.66155327 54.19552698 13.6875 56.9375 C13.42001953 57.61425781 13.15253906 58.29101562 12.87695312 58.98828125 C11.27730185 63.14623002 11.27730185 63.14623002 12.125 67.4375 C12.75160522 66.89391846 12.75160522 66.89391846 13.39086914 66.33935547 C15.32289735 64.66352694 17.25519741 62.98801215 19.1875 61.3125 C20.17266602 60.45785156 20.17266602 60.45785156 21.17773438 59.5859375 C25.48098532 55.85504013 29.79755316 52.14030887 34.125 48.4375 C33.795 47.7775 33.465 47.1175 33.125 46.4375 C31.58425884 46.35528654 30.04219346 46.29776705 28.5 46.25 C27.64148438 46.21519531 26.78296875 46.18039063 25.8984375 46.14453125 C22.26215513 46.52864558 20.16063163 47.37392952 17.125 49.4375 Z " fill="#FFFFFF" transform="translate(63.875,-0.4375)"/>
<path d="M0 0 C0.33 5.61 0.66 11.22 1 17 C4.73725307 18.40927887 4.73725307 18.40927887 6.875 17 C9.87567976 15.58791541 11.81275405 16.28449581 15 17 C16.65919896 17.36871088 18.3247643 17.71281674 20 18 C22.11925604 15.88074396 21.41831017 11.3803907 21.5625 8.4375 C21.62727539 7.22803711 21.62727539 7.22803711 21.69335938 5.99414062 C21.79975262 3.99631195 21.90040888 1.9981793 22 0 C23.4370809 -0.05422947 24.87475462 -0.09289723 26.3125 -0.125 C27.11300781 -0.14820312 27.91351563 -0.17140625 28.73828125 -0.1953125 C31 0 31 0 34 2 C34.36749268 3.8662262 34.36749268 3.8662262 34.35644531 6.15844727 C34.35944641 7.01596085 34.36244751 7.87347443 34.36553955 8.75697327 C34.35319275 9.68408615 34.34084595 10.61119904 34.328125 11.56640625 C34.32625183 12.51563461 34.32437866 13.46486298 34.32244873 14.44285583 C34.31571989 16.451116 34.30178898 18.45936289 34.28125 20.4675293 C34.25009243 23.55334551 34.24028067 26.63865148 34.234375 29.72460938 C34.22520557 31.67188127 34.21483 33.61914794 34.203125 35.56640625 C34.19675018 36.96011192 34.19675018 36.96011192 34.19024658 38.38197327 C34.18063904 39.23633469 34.17103149 40.09069611 34.16113281 40.97094727 C34.15430481 41.72658463 34.14747681 42.48222198 34.14044189 43.26075745 C34 45 34 45 33 46 C31.62390118 46.09795311 30.24286118 46.12798088 28.86328125 46.12939453 C27.54686646 46.13412277 27.54686646 46.13412277 26.20385742 46.13894653 C25.24970947 46.1369223 24.29556152 46.13489807 23.3125 46.1328125 C21.85324097 46.13424759 21.85324097 46.13424759 20.36450195 46.13571167 C18.303222 46.13639358 16.24193992 46.13453853 14.18066406 46.13037109 C11.01362312 46.125023 7.846724 46.13031572 4.6796875 46.13671875 C2.68229135 46.13605797 0.68489529 46.13477681 -1.3125 46.1328125 C-2.26664795 46.13483673 -3.2207959 46.13686096 -4.20385742 46.13894653 C-5.08146729 46.13579437 -5.95907715 46.13264221 -6.86328125 46.12939453 C-7.63969971 46.12859894 -8.41611816 46.12780334 -9.21606445 46.12698364 C-11 46 -11 46 -12 45 C-12.10818174 43.66026951 -12.14898799 42.31498357 -12.16113281 40.97094727 C-12.17074036 40.11658585 -12.1803479 39.26222443 -12.19024658 38.38197327 C-12.19449646 37.45283615 -12.19874634 36.52369904 -12.203125 35.56640625 C-12.20882507 34.61813461 -12.21452515 33.66986298 -12.22039795 32.69285583 C-12.22986272 30.68286256 -12.23638777 28.67285367 -12.24023438 26.6628418 C-12.24994806 23.57899088 -12.28096082 20.4958039 -12.3125 17.41210938 C-12.31902882 15.46354564 -12.32427977 13.51497712 -12.328125 11.56640625 C-12.3404718 10.63929337 -12.3528186 9.71218048 -12.36553955 8.75697327 C-12.3610379 7.4707029 -12.3610379 7.4707029 -12.35644531 6.15844727 C-12.36009094 5.40201431 -12.36373657 4.64558136 -12.36749268 3.8662262 C-12.24622009 3.25037155 -12.12494751 2.63451691 -12 2 C-7.7975546 -0.80163026 -4.99895065 -0.14489712 0 0 Z " fill="#FFFFFF" transform="translate(53,82)"/>
<path d="M0 0 C2.64 0 5.28 0 8 0 C8 3.3 8 6.6 8 10 C5.36 10 2.72 10 0 10 C0 6.7 0 3.4 0 0 Z " fill="#FFFFFF" transform="translate(60,82)"/>
</svg>
