<svg xmlns="http://www.w3.org/2000/svg" version="1.1" xmlns:xlink="http://www.w3.org/1999/xlink" xmlns:svgjs="http://svgjs.dev/svgjs" width="1500" height="250" viewBox="0 0 1500 250"><g transform="matrix(1,0,0,1,-0.9090909090909918,-0.559562718359075)"><svg viewBox="0 0 396 66" data-background-color="#ffffff" preserveAspectRatio="xMidYMid meet" height="250" width="1500" xmlns="http://www.w3.org/2000/svg" xmlns:xlink="http://www.w3.org/1999/xlink"><g id="tight-bounds" transform="matrix(1,0,0,1,0.2400000000000091,0.14772455764679648)"><svg viewBox="0 0 395.52 65.7045508847064" height="65.7045508847064" width="395.52"><g><svg viewBox="0 0 395.52 65.7045508847064" height="65.7045508847064" width="395.52"><g><svg viewBox="0 0 395.52 65.7045508847064" height="65.7045508847064" width="395.52"><g id="textblocktransform"><svg viewBox="0 0 395.52 65.7045508847064" height="65.7045508847064" width="395.52" id="textblock"><g><svg viewBox="0 0 395.52 65.7045508847064" height="65.7045508847064" width="395.52"><g transform="matrix(1,0,0,1,0,0)"><svg width="395.52" viewBox="3.0299999999999994 -35.5 216.60999999999999 35.99" height="65.7045508847064" data-palette-color="#222222"><g class="wordmark-text-0" data-fill-palette-color="primary" id="text-0"><path d="M38.04-31.81L38.04 0 31.69 0 31.69-8.59 9.38-8.59 9.38 0 3.03 0 3.03-17.5Q3.03-21.34 4.35-24.56 5.66-27.78 8.01-30.1 10.35-32.42 13.55-33.72 16.75-35.01 20.53-35.01L20.53-35.01 34.84-35.01Q35.5-35.01 36.08-34.77 36.67-34.52 37.11-34.08 37.55-33.64 37.79-33.06 38.04-32.47 38.04-31.81L38.04-31.81ZM9.38-17.5L9.38-14.94 31.69-14.94 31.69-28.66 20.53-28.66Q20.24-28.66 19.3-28.58 18.36-28.49 17.13-28.15 15.89-27.81 14.53-27.1 13.16-26.39 12.01-25.15 10.86-23.9 10.12-22.03 9.38-20.17 9.38-17.5L9.38-17.5ZM51.8-35.01L51.8 0 45.46 0 45.46-35.01 51.8-35.01ZM94.16-20.36L94.16-14.65Q94.16-11.45 93.05-8.76 91.94-6.08 89.99-4.14 88.03-2.2 85.35-1.1 82.66 0 79.51 0L79.51 0 62.37 0Q61.69 0 61.1-0.24 60.52-0.49 60.09-0.92 59.66-1.34 59.42-1.93 59.17-2.51 59.17-3.2L59.17-3.2 59.17-31.81Q59.17-32.47 59.42-33.06 59.66-33.64 60.09-34.08 60.52-34.52 61.1-34.77 61.69-35.01 62.37-35.01L62.37-35.01 79.51-35.01Q82.66-35.01 85.35-33.91 88.03-32.81 89.99-30.87 91.94-28.93 93.05-26.23 94.16-23.54 94.16-20.36L94.16-20.36ZM87.81-14.65L87.81-20.36Q87.81-22.22 87.21-23.75 86.62-25.29 85.52-26.38 84.42-27.47 82.89-28.06 81.37-28.66 79.51-28.66L79.51-28.66 65.52-28.66 65.52-6.35 79.51-6.35Q81.37-6.35 82.89-6.95 84.42-7.54 85.52-8.63 86.62-9.72 87.21-11.24 87.81-12.77 87.81-14.65L87.81-14.65ZM135.37-27.29L135.37-23.24Q135.37-21.07 134.83-19.36 134.29-17.65 133.38-16.35 132.46-15.04 131.27-14.11 130.07-13.18 128.76-12.59 127.46-11.99 126.13-11.72 124.8-11.45 123.63-11.45L123.63-11.45 136.88 0 127.07 0 113.84-11.45 109.27-11.45 109.27-17.8 123.63-17.8Q124.82-17.9 125.81-18.3 126.8-18.7 127.52-19.38 128.24-20.07 128.63-21.03 129.02-22 129.02-23.24L129.02-23.24 129.02-27.25Q129.02-27.78 128.89-28.06 128.75-28.34 128.54-28.48 128.34-28.61 128.11-28.64 127.87-28.66 127.68-28.66L127.68-28.66 106.73-28.66 106.73 0 100.38 0 100.38-31.81Q100.38-32.47 100.63-33.06 100.87-33.64 101.3-34.08 101.73-34.52 102.31-34.77 102.9-35.01 103.58-35.01L103.58-35.01 127.68-35.01Q129.8-35.01 131.27-34.24 132.73-33.47 133.65-32.31 134.56-31.15 134.97-29.81 135.37-28.47 135.37-27.29L135.37-27.29ZM178.48-20.85L178.48-14.16Q178.48-10.96 177.38-8.28 176.28-5.59 174.33-3.64 172.38-1.68 169.7-0.6 167.03 0.49 163.88 0.49L163.88 0.49 155.29 0.49Q152.14 0.49 149.45-0.6 146.77-1.68 144.81-3.64 142.86-5.59 141.75-8.28 140.64-10.96 140.64-14.16L140.64-14.16 140.64-20.85Q140.64-24.02 141.75-26.72 142.86-29.42 144.81-31.36 146.77-33.3 149.45-34.4 152.14-35.5 155.29-35.5L155.29-35.5 163.88-35.5Q167.03-35.5 169.7-34.4 172.38-33.3 174.33-31.36 176.28-29.42 177.38-26.72 178.48-24.02 178.48-20.85L178.48-20.85ZM172.13-14.16L172.13-20.85Q172.13-22.73 171.54-24.26 170.94-25.78 169.85-26.87 168.76-27.95 167.24-28.55 165.71-29.15 163.88-29.15L163.88-29.15 155.29-29.15Q153.43-29.15 151.91-28.55 150.38-27.95 149.28-26.87 148.18-25.78 147.59-24.26 146.99-22.73 146.99-20.85L146.99-20.85 146.99-14.16Q146.99-12.28 147.59-10.75 148.18-9.23 149.28-8.14 150.38-7.06 151.91-6.46 153.43-5.86 155.29-5.86L155.29-5.86 163.83-5.86Q165.69-5.86 167.21-6.46 168.74-7.06 169.84-8.14 170.94-9.23 171.54-10.75 172.13-12.28 172.13-14.16L172.13-14.16ZM219.64-23.24L219.64-20.36Q219.64-18.19 219.1-16.48 218.57-14.77 217.65-13.46 216.74-12.16 215.54-11.23 214.34-10.3 213.04-9.72 211.73-9.13 210.4-8.86 209.07-8.59 207.9-8.59L207.9-8.59 193.54-8.59 193.54-14.94 207.9-14.94Q209.12-15.04 210.11-15.44 211.1-15.84 211.8-16.53 212.51-17.21 212.9-18.18 213.29-19.14 213.29-20.36L213.29-20.36 213.29-23.24Q213.17-24.44 212.78-25.44 212.39-26.44 211.72-27.15 211.05-27.86 210.09-28.26 209.14-28.66 207.9-28.66L207.9-28.66 193.59-28.66Q192.32-28.66 191.66-28 191-27.34 191-26.1L191-26.1 191 0 184.66 0 184.66-26.1Q184.66-28.54 185.55-30.25 186.44-31.96 187.77-33.01 189.1-34.06 190.66-34.53 192.22-35.01 193.54-35.01L193.54-35.01 207.9-35.01Q210.05-35.01 211.76-34.46 213.46-33.91 214.77-33 216.08-32.08 216.99-30.88 217.91-29.69 218.51-28.38 219.1-27.08 219.37-25.74 219.64-24.41 219.64-23.24L219.64-23.24Z" fill="#222222" data-fill-palette-color="primary"></path></g></svg></g></svg></g></svg></g></svg></g></svg></g><defs></defs></svg><rect width="395.52" height="65.7045508847064" fill="none" stroke="none" visibility="hidden"></rect></g></svg></g></svg>