<svg xmlns="http://www.w3.org/2000/svg" version="1.1" xmlns:xlink="http://www.w3.org/1999/xlink" xmlns:svgjs="http://svgjs.dev/svgjs" width="1500" height="1500" viewBox="0 0 1500 1500"><rect width="1500" height="1500" fill="#ffffff"></rect><g transform="matrix(0.6666666666666666,0,0,0.6666666666666666,249.39393939393938,594.534060732211)"><svg viewBox="0 0 396 123" data-background-color="#182524" preserveAspectRatio="xMidYMid meet" height="465" width="1500" xmlns="http://www.w3.org/2000/svg" xmlns:xlink="http://www.w3.org/1999/xlink"><g id="tight-bounds" transform="matrix(1,0,0,1,0.2400000000000091,0.1848726772195448)"><svg viewBox="0 0 395.52 122.6302546455609" height="122.6302546455609" width="395.52"><g><svg viewBox="0 0 395.52 122.6302546455609" height="122.6302546455609" width="395.52"><g><svg viewBox="0 0 395.52 122.6302546455609" height="122.6302546455609" width="395.52"><g id="textblocktransform"><svg viewBox="0 0 395.52 122.6302546455609" height="122.6302546455609" width="395.52" id="textblock"><g><svg viewBox="0 0 395.52 122.6302546455609" height="122.6302546455609" width="395.52"><g transform="matrix(1,0,0,1,0,0)"><svg width="395.52" viewBox="0.9 -35.05 145.29 45.05" height="122.6302546455609" data-palette-color="#e2f1e6"><path d="M5.85 0L5.85-1.5 24.25-1.5 13.65-30.65 2.5 0 0.9 0 13.65-35.05 26.4 0 5.85 0ZM32.05 0L32.05-29 33.55-29 33.55 0 32.05 0ZM46.84 0L46.84 0 43.05 0 43.05-29 46.84-29Q54.25-29 58.65-25.1 63.05-21.2 63.05-14.5 63.05-7.8 58.65-3.9 54.25 0 46.84 0ZM44.55-1.5L46.84-1.5Q53.59-1.5 57.57-4.95 61.55-8.4 61.55-14.5 61.55-20.6 57.57-24.05 53.59-27.5 46.84-27.5L46.84-27.5 44.55-27.5 44.55-1.5ZM82.89-14.55L82.89-14.55 89.69 0 88.04 0 81.04-15Q81.14-15.05 81.92-15.43 82.69-15.8 82.99-15.98 83.29-16.15 83.99-16.6 84.69-17.05 85.04-17.48 85.39-17.9 85.82-18.48 86.24-19.05 86.44-19.78 86.64-20.5 86.64-21.35L86.64-21.35Q86.64-24.5 83.64-26 80.64-27.5 76.19-27.5L76.19-27.5 72.19-27.5 72.19 0 70.69 0 70.69-29 76.19-29Q82.09-29 85.12-26.95 88.14-24.9 88.14-21.35L88.14-21.35Q88.14-19.05 86.59-17.28 85.04-15.5 82.89-14.55ZM111.09-27.48Q109.39-28 106.89-28 104.39-28 102.69-27.48 100.99-26.95 99.57-25.53 98.14-24.1 97.44-21.38 96.74-18.65 96.74-14.5 96.74-10.35 97.44-7.63 98.14-4.9 99.57-3.48 100.99-2.05 102.69-1.53 104.39-1 106.89-1 109.39-1 111.09-1.53 112.79-2.05 114.22-3.48 115.64-4.9 116.34-7.63 117.04-10.35 117.04-14.5 117.04-18.65 116.34-21.38 115.64-24.1 114.22-25.53 112.79-26.95 111.09-27.48ZM115.84-3.05Q113.14 0.5 106.89 0.5 100.64 0.5 97.94-3.05 95.24-6.6 95.24-14.5 95.24-22.4 97.94-25.95 100.64-29.5 106.89-29.5 113.14-29.5 115.84-25.95 118.54-22.4 118.54-14.5 118.54-6.6 115.84-3.05ZM141.99-12.4L139.19-10.8 138.44-12.1 141.24-13.7Q144.69-15.6 144.69-19.75L144.69-19.75Q144.69-27.5 132.89-27.5L132.89-27.5 128.29-27.5 128.29 10 126.79 10 126.79-29 132.89-29Q139.49-29 142.84-26.58 146.19-24.15 146.19-19.75L146.19-19.75Q146.19-14.75 141.99-12.4L141.99-12.4Z" opacity="1" transform="matrix(1,0,0,1,0,0)" fill="#000000" class="wordmark-text-0" data-fill-palette-color="primary" id="text-0"></path></svg></g></svg></g></svg></g></svg></g></svg></g><defs></defs></svg><rect width="395.52" height="122.6302546455609" fill="none" stroke="none" visibility="hidden"></rect></g></svg></g></svg>